<svg width="414" height="533" viewBox="0 0 414 533" fill="none" xmlns="http://www.w3.org/2000/svg">
<rect width="414" height="533" fill="#657E8C"/>
<path d="M186.9 274.36C186.06 274.36 185.32 274.213 184.68 273.92C184.04 273.627 183.547 273.22 183.2 272.7C182.853 272.167 182.68 271.553 182.68 270.86C182.68 270.273 182.8 269.74 183.04 269.26C183.293 268.78 183.627 268.4 184.04 268.12C184.467 267.84 184.933 267.7 185.44 267.7C185.907 267.7 186.3 267.82 186.62 268.06C186.94 268.287 187.14 268.607 187.22 269.02C186.527 269.02 185.973 269.207 185.56 269.58C185.147 269.94 184.94 270.433 184.94 271.06C184.94 271.633 185.113 272.093 185.46 272.44C185.807 272.787 186.267 272.96 186.84 272.96C187.547 272.96 188.127 272.727 188.58 272.26C189.047 271.78 189.28 271.18 189.28 270.46C189.28 269.833 189.107 269.24 188.76 268.68C188.413 268.12 187.893 267.44 187.2 266.64C186.48 265.813 185.933 265.107 185.56 264.52C185.2 263.92 185.02 263.267 185.02 262.56C185.02 261.867 185.213 261.247 185.6 260.7C185.987 260.14 186.52 259.7 187.2 259.38C187.88 259.06 188.647 258.9 189.5 258.9C190.58 258.9 191.44 259.153 192.08 259.66C192.733 260.167 193.06 260.847 193.06 261.7C193.06 262.26 192.92 262.713 192.64 263.06C192.36 263.407 191.993 263.58 191.54 263.58C191.033 263.58 190.627 263.373 190.32 262.96C190.573 262.773 190.773 262.527 190.92 262.22C191.067 261.913 191.14 261.593 191.14 261.26C191.14 260.833 191.013 260.493 190.76 260.24C190.507 259.987 190.16 259.86 189.72 259.86C189.187 259.86 188.747 260.053 188.4 260.44C188.067 260.813 187.9 261.293 187.9 261.88C187.9 262.413 188.053 262.913 188.36 263.38C188.667 263.833 189.147 264.42 189.8 265.14C190.333 265.713 190.76 266.207 191.08 266.62C191.413 267.033 191.693 267.513 191.92 268.06C192.16 268.593 192.28 269.173 192.28 269.8C192.28 270.653 192.04 271.427 191.56 272.12C191.093 272.813 190.447 273.36 189.62 273.76C188.807 274.16 187.9 274.36 186.9 274.36ZM197.266 274.12C196.28 274.12 195.513 273.867 194.966 273.36C194.42 272.84 194.146 272.033 194.146 270.94C194.146 270.02 194.326 269.007 194.686 267.9C195.046 266.793 195.633 265.84 196.446 265.04C197.26 264.227 198.293 263.82 199.546 263.82C201.013 263.82 201.746 264.46 201.746 265.74C201.746 266.487 201.533 267.173 201.106 267.8C200.68 268.427 200.113 268.933 199.406 269.32C198.7 269.693 197.946 269.907 197.146 269.96C197.12 270.36 197.106 270.627 197.106 270.76C197.106 271.413 197.22 271.86 197.446 272.1C197.673 272.327 198.04 272.44 198.546 272.44C199.266 272.44 199.88 272.273 200.386 271.94C200.906 271.607 201.473 271.1 202.086 270.42H202.766C201.286 272.887 199.453 274.12 197.266 274.12ZM197.306 269C197.8 268.973 198.266 268.8 198.706 268.48C199.16 268.16 199.52 267.753 199.786 267.26C200.066 266.767 200.206 266.247 200.206 265.7C200.206 265.153 200.04 264.88 199.706 264.88C199.226 264.88 198.753 265.3 198.286 266.14C197.833 266.98 197.506 267.933 197.306 269ZM205.482 274.12C204.722 274.12 204.089 273.86 203.582 273.34C203.075 272.82 202.822 272.007 202.822 270.9C202.822 269.913 203.015 268.88 203.402 267.8C203.802 266.707 204.389 265.787 205.162 265.04C205.949 264.28 206.882 263.9 207.962 263.9C208.509 263.9 208.915 263.993 209.182 264.18C209.449 264.367 209.582 264.613 209.582 264.92V265.06L209.802 264H212.682L211.242 270.8C211.189 271 211.162 271.213 211.162 271.44C211.162 272.013 211.435 272.3 211.982 272.3C212.355 272.3 212.675 272.127 212.942 271.78C213.222 271.433 213.442 270.98 213.602 270.42H214.442C213.949 271.86 213.335 272.84 212.602 273.36C211.882 273.867 211.155 274.12 210.422 274.12C209.862 274.12 209.409 273.967 209.062 273.66C208.729 273.34 208.529 272.88 208.462 272.28C208.075 272.827 207.642 273.273 207.162 273.62C206.695 273.953 206.135 274.12 205.482 274.12ZM206.782 272.18C207.115 272.18 207.442 272.027 207.762 271.72C208.095 271.4 208.322 270.967 208.442 270.42L209.402 265.9C209.402 265.727 209.335 265.56 209.202 265.4C209.069 265.227 208.862 265.14 208.582 265.14C208.049 265.14 207.569 265.453 207.142 266.08C206.715 266.693 206.382 267.44 206.142 268.32C205.902 269.187 205.782 269.953 205.782 270.62C205.782 271.287 205.875 271.713 206.062 271.9C206.262 272.087 206.502 272.18 206.782 272.18ZM216.549 274.12C215.909 274.12 215.389 273.92 214.989 273.52C214.603 273.107 214.409 272.493 214.409 271.68C214.409 271.347 214.463 270.913 214.569 270.38L216.709 260.36L219.669 259.96L217.369 270.76C217.316 270.96 217.289 271.153 217.289 271.34C217.289 271.873 217.563 272.14 218.109 272.14C218.349 272.14 218.563 272.1 218.749 272.02C218.696 272.687 218.456 273.207 218.029 273.58C217.616 273.94 217.123 274.12 216.549 274.12Z" fill="#FCFCFC"/>
<path d="M208.309 280.312V286H207.863V280.312H208.309ZM209.926 280.312V280.73H206.25V280.312H209.926ZM214.359 282.855V283.277H211.519V282.855H214.359ZM211.617 280.312V286H211.168V280.312H211.617ZM214.73 280.312V286H214.281V280.312H214.73ZM219.39 285.582V286H216.734V285.582H219.39ZM216.859 280.312V286H216.41V280.312H216.859ZM219.058 282.855V283.277H216.734V282.855H219.058ZM219.37 280.312V280.73H216.734V280.312H219.37ZM224.143 286H223.077L223.081 285.582H224.143C224.484 285.582 224.775 285.51 225.014 285.367C225.254 285.224 225.436 285.014 225.561 284.738C225.689 284.462 225.753 284.125 225.753 283.727V282.574C225.753 282.272 225.716 282.007 225.643 281.777C225.573 281.546 225.469 281.353 225.331 281.199C225.195 281.043 225.03 280.926 224.835 280.848C224.639 280.77 224.419 280.73 224.175 280.73H223.053V280.312H224.175C224.477 280.312 224.75 280.362 224.995 280.461C225.242 280.56 225.456 280.706 225.635 280.898C225.815 281.091 225.953 281.329 226.05 281.613C226.146 281.895 226.194 282.217 226.194 282.582V283.727C226.194 284.094 226.146 284.419 226.05 284.703C225.953 284.984 225.815 285.221 225.635 285.414C225.456 285.607 225.24 285.753 224.987 285.852C224.737 285.951 224.456 286 224.143 286ZM223.288 280.312V286H222.839V280.312H223.288ZM230.702 285.582V286H228.045V285.582H230.702ZM228.17 280.312V286H227.721V280.312H228.17ZM230.37 282.855V283.277H228.045V282.855H230.37ZM230.682 280.312V280.73H228.045V280.312H230.682ZM233.631 280.656L231.99 286H231.529L233.338 280.312H233.654L233.631 280.656ZM235.1 286L233.459 280.656L233.44 280.312H233.752L235.565 286H235.1ZM234.846 283.988V284.41H232.279V283.988H234.846ZM239.525 285.582V286H237.064V285.582H239.525ZM237.189 280.312V286H236.736V280.312H237.189Z" fill="#FCFCFC"/>
<path d="M201.071 146.234C201.071 145.99 201.146 145.784 201.298 145.617C201.454 145.445 201.678 145.359 201.969 145.359C202.261 145.359 202.482 145.445 202.633 145.617C202.79 145.784 202.868 145.99 202.868 146.234C202.868 146.474 202.79 146.677 202.633 146.844C202.482 147.01 202.261 147.094 201.969 147.094C201.678 147.094 201.454 147.01 201.298 146.844C201.146 146.677 201.071 146.474 201.071 146.234ZM201.063 139.336C201.063 139.091 201.139 138.885 201.29 138.719C201.446 138.547 201.67 138.461 201.962 138.461C202.253 138.461 202.475 138.547 202.626 138.719C202.782 138.885 202.86 139.091 202.86 139.336C202.86 139.576 202.782 139.779 202.626 139.945C202.475 140.112 202.253 140.195 201.962 140.195C201.67 140.195 201.446 140.112 201.29 139.945C201.139 139.779 201.063 139.576 201.063 139.336ZM207.969 141.57V142.758H204.742V141.57H207.969ZM209.992 142.453V142.375C209.992 141.24 210.104 140.214 210.327 139.297C210.557 138.375 210.846 137.568 211.195 136.875C211.544 136.182 211.906 135.609 212.281 135.156C212.656 134.698 212.994 134.367 213.296 134.164L213.577 135.117C213.333 135.352 213.08 135.674 212.82 136.086C212.564 136.497 212.327 137.003 212.109 137.602C211.89 138.201 211.713 138.896 211.577 139.688C211.442 140.479 211.374 141.37 211.374 142.359V142.469C211.374 143.458 211.442 144.352 211.577 145.148C211.713 145.94 211.89 146.638 212.109 147.242C212.327 147.846 212.564 148.359 212.82 148.781C213.08 149.208 213.333 149.547 213.577 149.797L213.296 150.672C212.994 150.469 212.656 150.138 212.281 149.68C211.906 149.227 211.544 148.654 211.195 147.961C210.846 147.273 210.557 146.469 210.327 145.547C210.104 144.625 209.992 143.594 209.992 142.453ZM106.032 173.625V185H104.61V173.625H106.032ZM109.024 173.625V174.859H101.625V173.625H109.024ZM117.515 178.516V179.742H112.586V178.516H117.515ZM112.781 173.625V185H111.343V173.625H112.781ZM118.789 173.625V185H117.351V173.625H118.789ZM123.405 173.625V185H121.968V173.625H123.405ZM131.522 182.125C131.522 181.859 131.491 181.625 131.428 181.422C131.366 181.214 131.256 181.026 131.1 180.859C130.944 180.693 130.725 180.534 130.444 180.383C130.163 180.232 129.806 180.078 129.373 179.922C128.905 179.755 128.48 179.57 128.1 179.367C127.72 179.159 127.394 178.922 127.123 178.656C126.858 178.391 126.652 178.086 126.506 177.742C126.36 177.398 126.288 177.005 126.288 176.562C126.288 176.12 126.363 175.711 126.514 175.336C126.67 174.961 126.889 174.635 127.17 174.359C127.457 174.078 127.801 173.859 128.202 173.703C128.603 173.547 129.051 173.469 129.545 173.469C130.285 173.469 130.907 173.633 131.413 173.961C131.923 174.284 132.308 174.708 132.569 175.234C132.829 175.755 132.959 176.312 132.959 176.906H131.522C131.522 176.479 131.452 176.102 131.311 175.773C131.176 175.44 130.962 175.18 130.67 174.992C130.384 174.799 130.009 174.703 129.545 174.703C129.129 174.703 128.785 174.784 128.514 174.945C128.248 175.107 128.051 175.326 127.92 175.602C127.795 175.878 127.733 176.193 127.733 176.547C127.733 176.786 127.774 177.005 127.858 177.203C127.941 177.396 128.069 177.576 128.241 177.742C128.418 177.909 128.636 178.062 128.897 178.203C129.163 178.344 129.475 178.479 129.834 178.609C130.392 178.792 130.868 178.995 131.264 179.219C131.66 179.443 131.983 179.695 132.233 179.977C132.483 180.253 132.665 180.568 132.78 180.922C132.899 181.271 132.959 181.667 132.959 182.109C132.959 182.573 132.881 182.992 132.725 183.367C132.574 183.742 132.353 184.062 132.061 184.328C131.769 184.594 131.418 184.799 131.006 184.945C130.595 185.086 130.131 185.156 129.616 185.156C129.168 185.156 128.728 185.083 128.295 184.938C127.868 184.792 127.48 184.573 127.131 184.281C126.782 183.99 126.504 183.63 126.295 183.203C126.087 182.771 125.983 182.271 125.983 181.703H127.42C127.42 182.094 127.478 182.43 127.592 182.711C127.707 182.987 127.866 183.216 128.069 183.398C128.272 183.581 128.504 183.716 128.764 183.805C129.03 183.888 129.314 183.93 129.616 183.93C130.032 183.93 130.381 183.857 130.663 183.711C130.949 183.565 131.163 183.357 131.303 183.086C131.449 182.815 131.522 182.495 131.522 182.125ZM145.693 183.773V185H140.974V183.773H145.693ZM141.232 173.625V185H139.794V173.625H141.232ZM149.543 173.625V185H148.106V173.625H149.543ZM157.66 182.125C157.66 181.859 157.629 181.625 157.566 181.422C157.504 181.214 157.394 181.026 157.238 180.859C157.082 180.693 156.863 180.534 156.582 180.383C156.301 180.232 155.944 180.078 155.512 179.922C155.043 179.755 154.618 179.57 154.238 179.367C153.858 179.159 153.532 178.922 153.262 178.656C152.996 178.391 152.79 178.086 152.644 177.742C152.499 177.398 152.426 177.005 152.426 176.562C152.426 176.12 152.501 175.711 152.652 175.336C152.808 174.961 153.027 174.635 153.308 174.359C153.595 174.078 153.939 173.859 154.34 173.703C154.741 173.547 155.189 173.469 155.683 173.469C156.423 173.469 157.045 173.633 157.551 173.961C158.061 174.284 158.446 174.708 158.707 175.234C158.967 175.755 159.097 176.312 159.097 176.906H157.66C157.66 176.479 157.59 176.102 157.449 175.773C157.314 175.44 157.1 175.18 156.808 174.992C156.522 174.799 156.147 174.703 155.683 174.703C155.267 174.703 154.923 174.784 154.652 174.945C154.387 175.107 154.189 175.326 154.058 175.602C153.933 175.878 153.871 176.193 153.871 176.547C153.871 176.786 153.913 177.005 153.996 177.203C154.079 177.396 154.207 177.576 154.379 177.742C154.556 177.909 154.775 178.062 155.035 178.203C155.301 178.344 155.613 178.479 155.972 178.609C156.53 178.792 157.006 178.995 157.402 179.219C157.798 179.443 158.121 179.695 158.371 179.977C158.621 180.253 158.803 180.568 158.918 180.922C159.038 181.271 159.097 181.667 159.097 182.109C159.097 182.573 159.019 182.992 158.863 183.367C158.712 183.742 158.491 184.062 158.199 184.328C157.907 184.594 157.556 184.799 157.144 184.945C156.733 185.086 156.269 185.156 155.754 185.156C155.306 185.156 154.866 185.083 154.433 184.938C154.006 184.792 153.618 184.573 153.269 184.281C152.92 183.99 152.642 183.63 152.433 183.203C152.225 182.771 152.121 182.271 152.121 181.703H153.558C153.558 182.094 153.616 182.43 153.73 182.711C153.845 182.987 154.004 183.216 154.207 183.398C154.41 183.581 154.642 183.716 154.902 183.805C155.168 183.888 155.452 183.93 155.754 183.93C156.17 183.93 156.519 183.857 156.801 183.711C157.087 183.565 157.301 183.357 157.441 183.086C157.587 182.815 157.66 182.495 157.66 182.125ZM165.277 173.625V185H163.855V173.625H165.277ZM168.269 173.625V174.859H160.87V173.625H168.269ZM172.088 173.625V185H170.651V173.625H172.088ZM182.666 173.625V185H181.221L176.666 176.227V185H175.228V173.625H176.666L181.244 182.422V173.625H182.666ZM192.915 179.336V183.578C192.79 183.745 192.6 183.953 192.345 184.203C192.095 184.453 191.743 184.674 191.29 184.867C190.837 185.06 190.243 185.156 189.509 185.156C188.921 185.156 188.381 185.057 187.892 184.859C187.408 184.661 186.988 184.365 186.634 183.969C186.285 183.568 186.014 183.07 185.822 182.477C185.629 181.878 185.533 181.177 185.533 180.375V178.242C185.533 177.445 185.613 176.747 185.775 176.148C185.936 175.549 186.176 175.052 186.493 174.656C186.816 174.26 187.215 173.964 187.689 173.766C188.168 173.568 188.725 173.469 189.361 173.469C190.095 173.469 190.72 173.607 191.236 173.883C191.751 174.159 192.15 174.557 192.431 175.078C192.717 175.599 192.879 176.224 192.915 176.953H191.478C191.441 176.484 191.342 176.083 191.181 175.75C191.019 175.411 190.79 175.154 190.493 174.977C190.197 174.794 189.819 174.703 189.361 174.703C188.923 174.703 188.553 174.776 188.251 174.922C187.949 175.068 187.702 175.286 187.509 175.578C187.322 175.87 187.184 176.237 187.095 176.68C187.012 177.122 186.97 177.638 186.97 178.227V180.375C186.97 180.979 187.03 181.505 187.15 181.953C187.269 182.401 187.439 182.771 187.658 183.062C187.881 183.354 188.15 183.573 188.462 183.719C188.775 183.859 189.126 183.93 189.517 183.93C189.96 183.93 190.309 183.883 190.564 183.789C190.819 183.695 191.014 183.589 191.15 183.469C191.29 183.349 191.402 183.253 191.486 183.18V180.555H189.4V179.336H192.915ZM206.367 178.516V179.742H201.438V178.516H206.367ZM201.633 173.625V185H200.195V173.625H201.633ZM207.641 173.625V185H206.203V173.625H207.641ZM214.585 174.633L211.476 185H210.007L213.671 173.625H214.593L214.585 174.633ZM217.101 185L213.992 174.633L213.976 173.625H214.906L218.57 185H217.101ZM217.101 180.789V182.023H211.617V180.789H217.101ZM225.749 182.125C225.749 181.859 225.717 181.625 225.655 181.422C225.592 181.214 225.483 181.026 225.327 180.859C225.171 180.693 224.952 180.534 224.671 180.383C224.389 180.232 224.033 180.078 223.6 179.922C223.132 179.755 222.707 179.57 222.327 179.367C221.947 179.159 221.621 178.922 221.35 178.656C221.085 178.391 220.879 178.086 220.733 177.742C220.587 177.398 220.514 177.005 220.514 176.562C220.514 176.12 220.59 175.711 220.741 175.336C220.897 174.961 221.116 174.635 221.397 174.359C221.684 174.078 222.027 173.859 222.428 173.703C222.829 173.547 223.277 173.469 223.772 173.469C224.512 173.469 225.134 173.633 225.639 173.961C226.15 174.284 226.535 174.708 226.796 175.234C227.056 175.755 227.186 176.312 227.186 176.906H225.749C225.749 176.479 225.678 176.102 225.538 175.773C225.402 175.44 225.189 175.18 224.897 174.992C224.611 174.799 224.236 174.703 223.772 174.703C223.356 174.703 223.012 174.784 222.741 174.945C222.475 175.107 222.277 175.326 222.147 175.602C222.022 175.878 221.96 176.193 221.96 176.547C221.96 176.786 222.001 177.005 222.085 177.203C222.168 177.396 222.296 177.576 222.467 177.742C222.645 177.909 222.863 178.062 223.124 178.203C223.389 178.344 223.702 178.479 224.061 178.609C224.619 178.792 225.095 178.995 225.491 179.219C225.887 179.443 226.21 179.695 226.46 179.977C226.71 180.253 226.892 180.568 227.007 180.922C227.126 181.271 227.186 181.667 227.186 182.109C227.186 182.573 227.108 182.992 226.952 183.367C226.801 183.742 226.579 184.062 226.288 184.328C225.996 184.594 225.645 184.799 225.233 184.945C224.822 185.086 224.358 185.156 223.842 185.156C223.395 185.156 222.954 185.083 222.522 184.938C222.095 184.792 221.707 184.573 221.358 184.281C221.009 183.99 220.731 183.63 220.522 183.203C220.314 182.771 220.21 182.271 220.21 181.703H221.647C221.647 182.094 221.704 182.43 221.819 182.711C221.934 182.987 222.092 183.216 222.296 183.398C222.499 183.581 222.731 183.716 222.991 183.805C223.257 183.888 223.54 183.93 223.842 183.93C224.259 183.93 224.608 183.857 224.889 183.711C225.176 183.565 225.389 183.357 225.53 183.086C225.676 182.815 225.749 182.495 225.749 182.125ZM241.458 173.625V185H240.013L235.458 176.227V185H234.021V173.625H235.458L240.037 182.422V173.625H241.458ZM251.981 178.328V180.305C251.981 181.107 251.893 181.812 251.716 182.422C251.544 183.026 251.291 183.531 250.958 183.938C250.624 184.344 250.223 184.648 249.755 184.852C249.286 185.055 248.757 185.156 248.169 185.156C247.601 185.156 247.083 185.055 246.614 184.852C246.145 184.648 245.742 184.344 245.403 183.938C245.065 183.531 244.802 183.026 244.614 182.422C244.432 181.812 244.341 181.107 244.341 180.305V178.328C244.341 177.526 244.432 176.823 244.614 176.219C244.796 175.609 245.057 175.102 245.395 174.695C245.734 174.289 246.138 173.984 246.606 173.781C247.075 173.573 247.593 173.469 248.161 173.469C248.749 173.469 249.278 173.573 249.747 173.781C250.221 173.984 250.622 174.289 250.95 174.695C251.283 175.102 251.539 175.609 251.716 176.219C251.893 176.823 251.981 177.526 251.981 178.328ZM250.559 180.305V178.312C250.559 177.688 250.507 177.151 250.403 176.703C250.299 176.25 250.145 175.88 249.942 175.594C249.739 175.307 249.489 175.096 249.192 174.961C248.895 174.82 248.552 174.75 248.161 174.75C247.791 174.75 247.458 174.82 247.161 174.961C246.869 175.096 246.619 175.307 246.411 175.594C246.203 175.88 246.041 176.25 245.927 176.703C245.817 177.151 245.763 177.688 245.763 178.312V180.305C245.763 180.935 245.817 181.477 245.927 181.93C246.041 182.378 246.203 182.747 246.411 183.039C246.624 183.326 246.88 183.539 247.177 183.68C247.473 183.815 247.804 183.883 248.169 183.883C248.559 183.883 248.903 183.815 249.2 183.68C249.502 183.539 249.752 183.326 249.95 183.039C250.153 182.747 250.304 182.378 250.403 181.93C250.507 181.477 250.559 180.935 250.559 180.305ZM260.66 173.625V185H259.222V173.625H260.66ZM264.253 173.625H265.643L268.62 182.898L271.589 173.625H272.979L269.159 185H268.065L264.253 173.625ZM263.8 173.625H265.018L265.229 180.562V185H263.8V173.625ZM272.206 173.625H273.425V185H271.995V180.562L272.206 173.625ZM280.362 174.633L277.252 185H275.783L279.448 173.625H280.369L280.362 174.633ZM282.877 185L279.768 174.633L279.752 173.625H280.682L284.346 185H282.877ZM282.877 180.789V182.023H277.393V180.789H282.877ZM293.58 179.336V183.578C293.455 183.745 293.265 183.953 293.009 184.203C292.759 184.453 292.408 184.674 291.955 184.867C291.502 185.06 290.908 185.156 290.173 185.156C289.585 185.156 289.046 185.057 288.556 184.859C288.072 184.661 287.653 184.365 287.298 183.969C286.949 183.568 286.679 183.07 286.486 182.477C286.293 181.878 286.197 181.177 286.197 180.375V178.242C286.197 177.445 286.278 176.747 286.439 176.148C286.601 175.549 286.84 175.052 287.158 174.656C287.481 174.26 287.879 173.964 288.353 173.766C288.832 173.568 289.39 173.469 290.025 173.469C290.759 173.469 291.384 173.607 291.9 173.883C292.416 174.159 292.814 174.557 293.095 175.078C293.382 175.599 293.543 176.224 293.58 176.953H292.142C292.106 176.484 292.007 176.083 291.845 175.75C291.684 175.411 291.455 175.154 291.158 174.977C290.861 174.794 290.483 174.703 290.025 174.703C289.587 174.703 289.218 174.776 288.916 174.922C288.614 175.068 288.366 175.286 288.173 175.578C287.986 175.87 287.848 176.237 287.759 176.68C287.676 177.122 287.634 177.638 287.634 178.227V180.375C287.634 180.979 287.694 181.505 287.814 181.953C287.934 182.401 288.103 182.771 288.322 183.062C288.546 183.354 288.814 183.573 289.127 183.719C289.439 183.859 289.791 183.93 290.181 183.93C290.624 183.93 290.973 183.883 291.228 183.789C291.483 183.695 291.679 183.589 291.814 183.469C291.955 183.349 292.067 183.253 292.15 183.18V180.555H290.064V179.336H293.58ZM302.665 183.773V185H297.728V183.773H302.665ZM297.985 173.625V185H296.548V173.625H297.985ZM302.001 178.516V179.742H297.728V178.516H302.001ZM302.587 173.625V174.859H297.728V173.625H302.587ZM310.117 182.125C310.117 181.859 310.086 181.625 310.024 181.422C309.961 181.214 309.852 181.026 309.696 180.859C309.539 180.693 309.321 180.534 309.039 180.383C308.758 180.232 308.401 180.078 307.969 179.922C307.5 179.755 307.076 179.57 306.696 179.367C306.315 179.159 305.99 178.922 305.719 178.656C305.453 178.391 305.248 178.086 305.102 177.742C304.956 177.398 304.883 177.005 304.883 176.562C304.883 176.12 304.959 175.711 305.11 175.336C305.266 174.961 305.485 174.635 305.766 174.359C306.052 174.078 306.396 173.859 306.797 173.703C307.198 173.547 307.646 173.469 308.141 173.469C308.881 173.469 309.503 173.633 310.008 173.961C310.519 174.284 310.904 174.708 311.164 175.234C311.425 175.755 311.555 176.312 311.555 176.906H310.117C310.117 176.479 310.047 176.102 309.907 175.773C309.771 175.44 309.558 175.18 309.266 174.992C308.979 174.799 308.604 174.703 308.141 174.703C307.724 174.703 307.381 174.784 307.11 174.945C306.844 175.107 306.646 175.326 306.516 175.602C306.391 175.878 306.328 176.193 306.328 176.547C306.328 176.786 306.37 177.005 306.453 177.203C306.537 177.396 306.664 177.576 306.836 177.742C307.013 177.909 307.232 178.062 307.492 178.203C307.758 178.344 308.071 178.479 308.43 178.609C308.987 178.792 309.464 178.995 309.86 179.219C310.256 179.443 310.578 179.695 310.828 179.977C311.078 180.253 311.261 180.568 311.375 180.922C311.495 181.271 311.555 181.667 311.555 182.109C311.555 182.573 311.477 182.992 311.321 183.367C311.17 183.742 310.948 184.062 310.657 184.328C310.365 184.594 310.013 184.799 309.602 184.945C309.19 185.086 308.727 185.156 308.211 185.156C307.763 185.156 307.323 185.083 306.891 184.938C306.464 184.792 306.076 184.573 305.727 184.281C305.378 183.99 305.099 183.63 304.891 183.203C304.683 182.771 304.578 182.271 304.578 181.703H306.016C306.016 182.094 306.073 182.43 306.188 182.711C306.302 182.987 306.461 183.216 306.664 183.398C306.867 183.581 307.099 183.716 307.36 183.805C307.625 183.888 307.909 183.93 308.211 183.93C308.628 183.93 308.977 183.857 309.258 183.711C309.545 183.565 309.758 183.357 309.899 183.086C310.045 182.815 310.117 182.495 310.117 182.125Z" fill="#FCFCFC"/>
<path d="M197.809 283.289V283.695H196.234V283.289H197.809Z" fill="#FCFCFC"/>
</svg>
