<svg width="72" height="72" viewBox="0 0 72 72" fill="none" xmlns="http://www.w3.org/2000/svg">
<path d="M14.8594 42.2832C14.8594 41.8893 14.8809 41.5277 14.9238 41.1982C14.974 40.8617 15.0456 40.5 15.1387 40.1133H17.2979V41.0049C17.2979 41.499 17.3265 41.9359 17.3838 42.3154C17.4482 42.695 17.5485 43.0173 17.6846 43.2822C17.8278 43.54 18.014 43.737 18.2432 43.873C18.4795 44.002 18.766 44.0664 19.1025 44.0664C19.6325 44.0664 20.0371 43.9232 20.3164 43.6367C20.5957 43.3431 20.7354 42.917 20.7354 42.3584C20.7354 42.0719 20.7139 41.8105 20.6709 41.5742C20.6351 41.3307 20.5671 41.0908 20.4668 40.8545C20.3737 40.6182 20.2448 40.3711 20.0801 40.1133C19.9154 39.8483 19.7041 39.5547 19.4463 39.2324L16.5459 35.7842C16.0303 35.1253 15.6328 34.4629 15.3535 33.7969C15.0742 33.1237 14.9346 32.4076 14.9346 31.6484C14.9346 31.0397 15.0277 30.4811 15.2139 29.9727C15.4072 29.4642 15.6829 29.0273 16.041 28.6621C16.3991 28.2897 16.8395 28.0033 17.3623 27.8027C17.8923 27.5951 18.4902 27.4912 19.1562 27.4912C19.9655 27.4912 20.6387 27.6058 21.1758 27.835C21.7201 28.0641 22.1533 28.3649 22.4756 28.7373C22.7979 29.1097 23.0234 29.5286 23.1523 29.9941C23.2884 30.4525 23.3564 30.9144 23.3564 31.3799C23.3564 31.7738 23.3242 32.139 23.2598 32.4756C23.2025 32.805 23.1344 33.1702 23.0557 33.5713H20.9072V32.7012C20.9072 31.7272 20.7676 30.9824 20.4883 30.4668C20.209 29.944 19.7542 29.6826 19.124 29.6826C18.6012 29.6826 18.2109 29.8294 17.9531 30.123C17.6953 30.4095 17.5664 30.7962 17.5664 31.2832C17.5664 31.541 17.5843 31.7738 17.6201 31.9814C17.6631 32.1891 17.7204 32.3825 17.792 32.5615C17.8708 32.7334 17.9639 32.9017 18.0713 33.0664C18.1787 33.2311 18.3005 33.403 18.4365 33.582L21.6699 37.4922C22.2572 38.2585 22.7083 38.9961 23.0234 39.7051C23.3385 40.4069 23.4961 41.1517 23.4961 41.9395C23.4961 42.5911 23.3923 43.1784 23.1846 43.7012C22.984 44.224 22.694 44.668 22.3145 45.0332C21.9349 45.3984 21.4766 45.6813 20.9395 45.8818C20.4023 46.0752 19.7972 46.1719 19.124 46.1719C18.2933 46.1719 17.6022 46.0609 17.0508 45.8389C16.5065 45.6169 16.0697 45.3232 15.7402 44.958C15.418 44.5928 15.1888 44.1774 15.0527 43.7119C14.9238 43.2464 14.8594 42.7702 14.8594 42.2832ZM27.9279 27.6523H34.7277V29.8438H30.7101V35.333H33.8146V37.5244H30.7101V43.8086H34.8351V46H27.9279V27.6523ZM40.9534 27.6523H44.1546L47.5491 46H44.7347L44.2298 42.7129H40.8782L40.3948 46H37.5696L40.9534 27.6523ZM43.9075 40.6182L42.6185 31.4766H42.5003L41.2005 40.6182H43.9075ZM51.4223 27.6523H54.2046V43.8086H57.9966V46H51.4223V27.6523Z" fill="#FCFCFC"/>
<circle cx="36" cy="36" r="34.5" stroke="#F2D792" stroke-width="3"/>
</svg>
