<svg width="80" height="38" viewBox="0 0 80 38" fill="none" xmlns="http://www.w3.org/2000/svg">
<path d="M26.12 7.04C26.2 7.49333 26.2533 7.81333 26.28 8C26.3333 8.16 26.36 8.38667 26.36 8.68C26.36 9.56 26.16 10.3867 25.76 11.16C25.3867 11.9067 24.8667 12.44 24.2 12.76C23.6667 12.04 23.0133 11.4267 22.24 10.92C21.4667 10.3867 20.6133 9.96 19.68 9.64C18.7733 9.29333 17.8267 9.04 16.84 8.88C15.8533 8.72 14.8933 8.64 13.96 8.64C13.0267 8.64 12.1467 8.72 11.32 8.88C10.52 9.01333 9.8 9.21333 9.16 9.48C8.54667 9.72 8.05333 10.0267 7.68 10.4C7.33333 10.7733 7.16 11.2 7.16 11.68C7.24 12.2667 7.6 12.8667 8.24 13.48C8.88 14.0667 9.66667 14.6533 10.6 15.24C11.5333 15.8 12.56 16.36 13.68 16.92C14.8267 17.48 15.9467 18.0133 17.04 18.52C18.4 19.16 19.5733 19.76 20.56 20.32C21.5467 20.8533 22.36 21.4533 23 22.12C23.64 22.76 24.12 23.4933 24.44 24.32C24.76 25.1467 24.92 26.1467 24.92 27.32C24.92 28.68 24.6933 29.96 24.24 31.16C23.7867 32.3333 23.12 33.36 22.24 34.24C21.3867 35.12 20.3467 35.8 19.12 36.28C17.8933 36.7867 16.52 37.04 15 37.04C13.5067 37.04 11.8933 36.8133 10.16 36.36C8.42667 35.9067 6.8 35.28 5.28 34.48C3.78667 33.7067 2.53333 32.8133 1.52 31.8C0.533334 30.76 0.0400001 29.6667 0.0400001 28.52C0.0400001 27.9867 0.186667 27.3067 0.48 26.48C0.8 25.6533 1.36 24.7867 2.16 23.88C2.24 24.68 2.66667 25.6267 3.44 26.72C4.24 27.8133 5.42667 28.8267 7 29.76C8.46667 30.6133 9.97333 31.24 11.52 31.64C13.0933 32.0133 14.56 32.2 15.92 32.2C17.4133 32.2 18.6267 32.0133 19.56 31.64C20.4933 31.2667 21.2267 30.8267 21.76 30.32C22.2933 29.7867 22.6667 29.2533 22.88 28.72C23.0933 28.1867 23.2133 27.76 23.24 27.44C23.2133 26.9067 22.96 26.4 22.48 25.92C22.0267 25.4133 21.4 24.9333 20.6 24.48C19.8267 24 18.92 23.52 17.88 23.04C16.84 22.56 15.76 22.08 14.64 21.6C12.96 20.8533 11.5067 20.16 10.28 19.52C9.08 18.8533 8.08 18.1867 7.28 17.52C6.50667 16.8267 5.93333 16.1067 5.56 15.36C5.21333 14.6133 5.04 13.76 5.04 12.8C5.04 11.3067 5.49333 9.89333 6.4 8.56C7.30667 7.22666 8.61333 6.21333 10.32 5.52C11.1733 5.14667 12.08 4.88 13.04 4.72C14.0267 4.56 14.9867 4.48 15.92 4.48C17.68 4.48 19.4 4.72 21.08 5.2C22.76 5.68 24.44 6.29333 26.12 7.04ZM42.2859 17.44C42.1793 19.0933 41.8859 20.52 41.4059 21.72C40.9259 22.8933 40.2326 23.9333 39.3259 24.84C38.4459 25.72 37.3659 26.52 36.0859 27.24C34.8059 27.96 33.3126 28.6533 31.6059 29.32C31.6059 29.48 31.5926 29.6533 31.5659 29.84C31.5659 30 31.5659 30.1733 31.5659 30.36C31.5659 30.7067 31.5926 31.0667 31.6459 31.44C31.6993 31.8133 31.7926 32.16 31.9259 32.48C32.0593 32.8 32.2459 33.0667 32.4859 33.28C32.7259 33.4667 33.0326 33.56 33.4059 33.56C34.1259 33.56 34.8326 33.4 35.5259 33.08C36.2193 32.76 36.8726 32.3733 37.4859 31.92C38.1259 31.44 38.7126 30.9333 39.2459 30.4C39.8059 29.84 40.2993 29.3333 40.7259 28.88C40.9926 29.12 41.2193 29.3467 41.4059 29.56C40.2059 31.16 38.8859 32.4933 37.4459 33.56C36.0326 34.6 34.6859 35.2667 33.4059 35.56C31.5659 35.3467 30.1259 34.68 29.0859 33.56C28.0726 32.4133 27.5659 31.04 27.5659 29.44C27.5659 28.3467 27.7126 27.24 28.0059 26.12C28.3259 24.9733 28.7526 23.88 29.2859 22.84C29.8459 21.7733 30.4859 20.7733 31.2059 19.84C31.9526 18.9067 32.7393 18.0933 33.5659 17.4C34.4193 16.7067 35.2859 16.16 36.1659 15.76C37.0726 15.36 37.9659 15.16 38.8459 15.16C40.0726 15.32 41.2193 16.08 42.2859 17.44ZM39.5259 18.76C38.8059 18.8667 38.0593 19.16 37.2859 19.64C36.5126 20.12 35.7793 20.76 35.0859 21.56C34.4193 22.36 33.8059 23.2933 33.2459 24.36C32.6859 25.4267 32.2459 26.5733 31.9259 27.8C34.0593 26.7333 35.8326 25.4267 37.2459 23.88C38.6593 22.3067 39.4193 20.6 39.5259 18.76ZM57.9378 17.84C58.2045 17.84 58.5111 17.8933 58.8578 18C59.2311 18.08 59.5645 18.2 59.8578 18.36C60.1511 18.4933 60.3911 18.64 60.5778 18.8C60.7911 18.96 60.8978 19.1067 60.8978 19.24C60.3645 20.36 59.8711 21.4933 59.4178 22.64C58.9645 23.76 58.5778 24.84 58.2578 25.88C57.9378 26.92 57.6845 27.8933 57.4978 28.8C57.3378 29.7067 57.2578 30.4933 57.2578 31.16C57.2578 31.9067 57.3378 32.5333 57.4978 33.04C57.6578 33.52 57.9245 33.8667 58.2978 34.08C57.9778 34.2933 57.5645 34.4667 57.0578 34.6C56.5511 34.7333 56.0978 34.8 55.6978 34.8C54.2578 34.8 53.5378 33.8133 53.5378 31.84C53.5378 30.32 54.0445 28.24 55.0578 25.6C54.5245 26.8267 53.9111 27.9867 53.2178 29.08C52.5245 30.1467 51.8178 31.0933 51.0978 31.92C50.3778 32.7467 49.6445 33.4267 48.8978 33.96C48.1778 34.4667 47.5111 34.7733 46.8978 34.88C45.9111 34.8267 45.1111 34.36 44.4978 33.48C43.8845 32.5733 43.5778 31.4267 43.5778 30.04C43.5778 28.5467 43.8978 26.9733 44.5378 25.32C45.1778 23.6667 45.9911 22.1333 46.9778 20.72C47.9911 19.3067 49.0845 18.1333 50.2578 17.2C51.4311 16.24 52.5645 15.7333 53.6578 15.68C53.9245 15.76 54.2178 15.92 54.5378 16.16C54.8845 16.4 55.2045 16.68 55.4978 17C55.8178 17.32 56.0845 17.6533 56.2978 18C56.5111 18.32 56.6311 18.6 56.6578 18.84C55.5911 19 54.4845 19.52 53.3378 20.4C52.2178 21.28 51.1911 22.3467 50.2578 23.6C49.3511 24.8267 48.6045 26.1467 48.0178 27.56C47.4311 28.9733 47.1378 30.2933 47.1378 31.52C47.1378 32.0267 47.3245 32.3467 47.6978 32.48C48.4711 32.32 49.3645 31.6667 50.3778 30.52C51.3911 29.3467 52.6178 27.5467 54.0578 25.12C54.3245 24.64 54.6178 24.1067 54.9378 23.52C55.2845 22.9333 55.6311 22.32 55.9778 21.68C56.3245 21.04 56.6578 20.4 56.9778 19.76C57.3245 19.0933 57.6445 18.4533 57.9378 17.84ZM62.8869 31.44C62.8869 30.2667 63.1669 28.6267 63.7269 26.52C64.2869 24.3867 65.0735 21.9067 66.0869 19.08C67.7402 14.5733 69.2869 10.8267 70.7269 7.84C72.1935 4.82667 73.6202 2.48 75.0069 0.799998C75.3269 0.853331 75.7135 0.986664 76.1669 1.2C76.6469 1.41333 77.1135 1.65333 77.5669 1.92C78.0202 2.16 78.4202 2.41333 78.7669 2.68C79.1402 2.94666 79.3802 3.16 79.4869 3.32C77.4069 5.77333 75.5802 8.41333 74.0069 11.24C72.4335 14.0667 70.9935 17.3067 69.6869 20.96C68.5669 24.1067 67.7135 26.9467 67.1269 29.48C66.5402 31.9867 66.2469 34.08 66.2469 35.76C66.2469 36.2133 66.2469 36.4933 66.2469 36.6C66.2469 36.7067 66.2602 36.8133 66.2869 36.92C65.9135 36.8667 65.5935 36.7733 65.3269 36.64C65.0602 36.5067 64.8869 36.3467 64.8069 36.16C64.7535 36.0267 64.6069 35.8267 64.3669 35.56C64.1269 35.32 63.9135 35.1333 63.7269 35C63.4869 34.84 63.2869 34.4267 63.1269 33.76C62.9669 33.0667 62.8869 32.2933 62.8869 31.44Z" fill="white"/>
</svg>
