<svg width="70" height="30" viewBox="0 0 70 30" fill="none" xmlns="http://www.w3.org/2000/svg">
<path d="M6.56 29.24C5.28 29.24 4.2 29 3.32 28.52C2.44 28.0133 1.78667 27.3733 1.36 26.6C0.933333 25.8 0.72 24.9733 0.72 24.12C0.72 23.24 0.933333 22.48 1.36 21.84C1.76 21.1733 2.25333 20.6933 2.84 20.4C3.88 18.5333 4.78667 16.6533 5.56 14.76C6.33333 12.84 7.06667 10.7733 7.76 8.56L13.68 7.76C13.8133 11.1733 14.04 14.8667 14.36 18.84C14.4933 20.44 14.56 21.6 14.56 22.32C14.56 22.9333 14.5067 23.44 14.4 23.84C15.6533 23.12 16.6133 22.4533 17.28 21.84H18.96C17.2533 23.8133 15.2133 25.48 12.84 26.84C12.0667 27.6667 11.1067 28.28 9.96 28.68C8.84 29.0533 7.70667 29.24 6.56 29.24ZM5.28 26.08C6.26667 26.08 7.09333 25.7867 7.76 25.2C8.42667 24.6133 8.76 23.6667 8.76 22.36C8.76 21.56 8.68 20.44 8.52 19C8.25333 15.96 8.08 13.92 8 12.88C7.36 14.9867 6.28 17.5067 4.76 20.44C5.37333 20.76 5.68 21.2267 5.68 21.84C5.68 22.3467 5.50667 22.8 5.16 23.2C4.84 23.6 4.42667 23.8 3.92 23.8C3.36 23.8 3 23.6267 2.84 23.28C2.84 24.24 3.02667 24.9467 3.4 25.4C3.8 25.8533 4.42667 26.08 5.28 26.08ZM24.9934 29.24C23.0201 29.24 21.4868 28.7333 20.3934 27.72C19.3001 26.68 18.7534 25.0667 18.7534 22.88C18.7534 21.04 19.1134 19.0133 19.8334 16.8C20.5534 14.5867 21.7268 12.68 23.3534 11.08C24.9801 9.45333 27.0468 8.64 29.5534 8.64C32.4868 8.64 33.9534 9.92 33.9534 12.48C33.9534 13.9733 33.5268 15.3467 32.6734 16.6C31.8201 17.8533 30.6868 18.8667 29.2734 19.64C27.8601 20.3867 26.3534 20.8133 24.7534 20.92C24.7001 21.72 24.6734 22.2533 24.6734 22.52C24.6734 23.8267 24.9001 24.72 25.3534 25.2C25.8068 25.6533 26.5401 25.88 27.5534 25.88C28.9934 25.88 30.2201 25.5467 31.2334 24.88C32.2734 24.2133 33.4068 23.2 34.6334 21.84H35.9934C33.0334 26.7733 29.3668 29.24 24.9934 29.24ZM25.0734 19C26.0601 18.9467 26.9934 18.6 27.8734 17.96C28.7801 17.32 29.5001 16.5067 30.0334 15.52C30.5934 14.5333 30.8734 13.4933 30.8734 12.4C30.8734 11.3067 30.5401 10.76 29.8734 10.76C28.9134 10.76 27.9668 11.6 27.0334 13.28C26.1268 14.96 25.4734 16.8667 25.0734 19ZM41.425 29.24C39.905 29.24 38.6383 28.72 37.625 27.68C36.6117 26.64 36.105 25.0133 36.105 22.8C36.105 20.8267 36.4917 18.76 37.265 16.6C38.065 14.4133 39.2383 12.5733 40.785 11.08C42.3583 9.56 44.225 8.8 46.385 8.8C47.4783 8.8 48.2917 8.98667 48.825 9.36C49.3583 9.73333 49.625 10.2267 49.625 10.84V11.12L50.065 9H55.825L52.945 22.6C52.8383 23 52.785 23.4267 52.785 23.88C52.785 25.0267 53.3317 25.6 54.425 25.6C55.1717 25.6 55.8117 25.2533 56.345 24.56C56.905 23.8667 57.345 22.96 57.665 21.84H59.345C58.3583 24.72 57.1317 26.68 55.665 27.72C54.225 28.7333 52.7717 29.24 51.305 29.24C50.185 29.24 49.2783 28.9333 48.585 28.32C47.9183 27.68 47.5183 26.76 47.385 25.56C46.6117 26.6533 45.745 27.5467 44.785 28.24C43.8517 28.9067 42.7317 29.24 41.425 29.24ZM44.025 25.36C44.6917 25.36 45.345 25.0533 45.985 24.44C46.6517 23.8 47.105 22.9333 47.345 21.84L49.265 12.8C49.265 12.4533 49.1317 12.12 48.865 11.8C48.5983 11.4533 48.185 11.28 47.625 11.28C46.5583 11.28 45.5983 11.9067 44.745 13.16C43.8917 14.3867 43.225 15.88 42.745 17.64C42.265 19.3733 42.025 20.9067 42.025 22.24C42.025 23.5733 42.2117 24.4267 42.585 24.8C42.985 25.1733 43.465 25.36 44.025 25.36ZM63.5597 29.24C62.2797 29.24 61.2397 28.84 60.4397 28.04C59.6664 27.2133 59.2797 25.9867 59.2797 24.36C59.2797 23.6933 59.3864 22.8267 59.5997 21.76L63.8797 1.72L69.7997 0.919999L65.1997 22.52C65.093 22.92 65.0397 23.3067 65.0397 23.68C65.0397 24.7467 65.5864 25.28 66.6797 25.28C67.1597 25.28 67.5864 25.2 67.9597 25.04C67.853 26.3733 67.373 27.4133 66.5197 28.16C65.693 28.88 64.7064 29.24 63.5597 29.24Z" fill="white"/>
</svg>
