<svg width="63" height="37" viewBox="0 0 63 37" fill="none" xmlns="http://www.w3.org/2000/svg">
<path d="M0.484375 30.375C0.484375 29.7891 0.536458 29.2227 0.640625 28.6758C0.757812 28.1289 0.86849 27.6927 0.972656 27.3672H4.44922C4.44922 28.3438 4.49479 29.1641 4.58594 29.8281C4.6901 30.4792 4.85286 31 5.07422 31.3906C5.29557 31.7812 5.58854 32.0612 5.95312 32.2305C6.33073 32.3997 6.78646 32.4844 7.32031 32.4844C8.0625 32.4844 8.60286 32.276 8.94141 31.8594C9.27995 31.4427 9.44922 30.9609 9.44922 30.4141C9.44922 30.1276 9.41016 29.8542 9.33203 29.5938C9.25391 29.3333 9.14323 29.0729 9 28.8125C8.85677 28.5391 8.68099 28.2656 8.47266 27.9922C8.26432 27.7188 8.02995 27.4193 7.76953 27.0938L4.15625 22.8359C3.6875 22.25 3.23177 21.6576 2.78906 21.0586C2.35938 20.4466 1.97526 19.8216 1.63672 19.1836C1.3112 18.5326 1.04427 17.8555 0.835938 17.1523C0.640625 16.4492 0.542969 15.707 0.542969 14.9258C0.542969 13.8841 0.71875 12.9792 1.07031 12.2109C1.4349 11.4427 1.91667 10.8047 2.51562 10.2969C3.1276 9.78906 3.83073 9.41146 4.625 9.16406C5.41927 8.91667 6.25911 8.79297 7.14453 8.79297C8.12109 8.79297 9 8.91016 9.78125 9.14453C10.5625 9.37891 11.2331 9.73047 11.793 10.1992C12.3529 10.668 12.7826 11.2539 13.082 11.957C13.3815 12.6471 13.5312 13.4544 13.5312 14.3789C13.5312 15.0039 13.4727 15.6094 13.3555 16.1953C13.2513 16.7812 13.1471 17.2826 13.043 17.6992H9.625C9.61198 16.8138 9.57292 16.0391 9.50781 15.375C9.44271 14.7109 9.31901 14.1641 9.13672 13.7344C8.96745 13.2917 8.72656 12.9596 8.41406 12.7383C8.11458 12.5169 7.71745 12.4062 7.22266 12.4062C6.79297 12.4062 6.4349 12.4779 6.14844 12.6211C5.86198 12.7513 5.6276 12.9271 5.44531 13.1484C5.27604 13.3698 5.15234 13.6172 5.07422 13.8906C5.00911 14.1641 4.97656 14.444 4.97656 14.7305C4.97656 15.3555 5.1263 15.9349 5.42578 16.4688C5.72526 17.0026 6.1224 17.582 6.61719 18.207L10.5625 22.8359C10.849 23.1875 11.181 23.6172 11.5586 24.125C11.9362 24.6198 12.2943 25.1732 12.6328 25.7852C12.9714 26.3841 13.2578 27.0417 13.4922 27.7578C13.7266 28.474 13.8438 29.2227 13.8438 30.0039C13.8438 30.9544 13.694 31.8203 13.3945 32.6016C13.0951 33.3698 12.6523 34.0273 12.0664 34.5742C11.4805 35.1211 10.7578 35.5443 9.89844 35.8438C9.05208 36.1432 8.08203 36.293 6.98828 36.293C6.08984 36.293 5.24349 36.1953 4.44922 36C3.65495 35.7917 2.96484 35.4596 2.37891 35.0039C1.79297 34.5352 1.33073 33.9232 0.992188 33.168C0.653646 32.4128 0.484375 31.4818 0.484375 30.375ZM25.4344 36.293C24.2755 36.293 23.2469 36.0781 22.3484 35.6484C21.463 35.2188 20.7143 34.5482 20.1023 33.6367C19.4904 32.7253 19.0281 31.5599 18.7156 30.1406C18.4031 28.7083 18.2469 26.9896 18.2469 24.9844V19.9062C18.2469 18.2005 18.3706 16.7422 18.618 15.5312C18.8784 14.3073 19.2104 13.2852 19.6141 12.4648C20.0307 11.6315 20.506 10.974 21.0398 10.4922C21.5867 10.0104 22.1466 9.64583 22.7195 9.39844C23.2924 9.13802 23.8589 8.97526 24.4188 8.91016C24.9917 8.83203 25.519 8.79297 26.0008 8.79297C26.8862 8.79297 27.7391 8.92969 28.5594 9.20312C29.3797 9.46354 30.1023 9.91927 30.7273 10.5703C31.3523 11.2083 31.8471 12.0677 32.2117 13.1484C32.5893 14.2292 32.7781 15.5768 32.7781 17.1914C32.7781 17.7383 32.7586 18.2917 32.7195 18.8516C32.6935 19.4115 32.6544 19.9648 32.6023 20.5117C32.5503 21.0456 32.4786 21.5664 32.3875 22.0742C32.3094 22.582 32.2247 23.0508 32.1336 23.4805H23.2078V26.2148C23.2078 27.3867 23.2534 28.3763 23.3445 29.1836C23.4357 29.9779 23.5854 30.6224 23.7938 31.1172C24.0151 31.599 24.3081 31.9505 24.6727 32.1719C25.0503 32.3802 25.519 32.4844 26.0789 32.4844C26.3784 32.4844 26.6714 32.4258 26.9578 32.3086C27.2443 32.1784 27.4917 31.9701 27.7 31.6836C27.9214 31.3971 28.0971 31.0195 28.2273 30.5508C28.3576 30.069 28.4227 29.4766 28.4227 28.7734V27.9336H32.5438V28.9688C32.5438 31.5208 31.9318 33.3828 30.7078 34.5547C29.4969 35.7135 27.7391 36.293 25.4344 36.293ZM28.1688 20.1602C28.1818 20.0169 28.1948 19.8281 28.2078 19.5938C28.2208 19.3464 28.2273 19.0924 28.2273 18.832C28.2404 18.5716 28.2469 18.3177 28.2469 18.0703C28.2469 17.8099 28.2469 17.5885 28.2469 17.4062C28.2469 15.6354 28.0385 14.3594 27.6219 13.5781C27.2052 12.7969 26.5867 12.4062 25.7664 12.4062C25.3367 12.4062 24.9591 12.5104 24.6336 12.7188C24.3081 12.9141 24.0411 13.2526 23.8328 13.7344C23.6245 14.2031 23.4682 14.8281 23.3641 15.6094C23.2599 16.3906 23.2078 17.3607 23.2078 18.5195V20.1602H28.1688ZM41.8688 36.293C41.0354 36.293 40.2932 36.1302 39.6422 35.8047C39.0042 35.4661 38.4638 35.0104 38.0211 34.4375C37.5784 33.8646 37.2398 33.1875 37.0055 32.4062C36.7841 31.612 36.6734 30.7526 36.6734 29.8281C36.6734 28.7214 36.8102 27.7383 37.0836 26.8789C37.357 26.0195 37.7542 25.2448 38.275 24.5547C38.8089 23.8646 39.4664 23.2396 40.2477 22.6797C41.0289 22.1068 41.9339 21.5664 42.9625 21.0586C43.4573 20.8112 44.0107 20.5638 44.6227 20.3164C45.2477 20.056 45.801 19.8346 46.2828 19.6523V16.0977C46.2828 15.5768 46.2633 15.0951 46.2242 14.6523C46.1852 14.1966 46.0875 13.806 45.9313 13.4805C45.788 13.1419 45.5667 12.8815 45.2672 12.6992C44.9677 12.5039 44.5576 12.4062 44.0367 12.4062C43.6852 12.4062 43.3401 12.4714 43.0016 12.6016C42.676 12.7318 42.3831 12.9531 42.1227 13.2656C41.8753 13.5781 41.6734 13.9948 41.5172 14.5156C41.374 15.0365 41.3023 15.681 41.3023 16.4492V17.6211H37.5328C37.4156 17.1133 37.3245 16.651 37.2594 16.2344C37.2073 15.8047 37.1813 15.3815 37.1813 14.9648C37.1813 13.9622 37.3505 13.0768 37.6891 12.3086C38.0406 11.5404 38.5224 10.8958 39.1344 10.375C39.7594 9.85417 40.5016 9.46354 41.3609 9.20312C42.2203 8.92969 43.1643 8.79297 44.193 8.79297C45.5341 8.79297 46.6474 8.94271 47.5328 9.24219C48.4182 9.52865 49.1214 9.96484 49.6422 10.5508C50.176 11.1367 50.5471 11.8724 50.7555 12.7578C50.9768 13.6432 51.0875 14.6784 51.0875 15.8633V36H47.4156L47.0641 33.6953C46.5302 34.4635 45.8141 35.0885 44.9156 35.5703C44.0302 36.0521 43.0146 36.293 41.8688 36.293ZM44.0563 32.4844C44.4729 32.4844 44.8766 32.3802 45.2672 32.1719C45.6708 31.9505 46.0094 31.6836 46.2828 31.3711V22.9531C46.0224 23.0573 45.7294 23.181 45.4039 23.3242C45.0784 23.4674 44.7268 23.6562 44.3492 23.8906C43.9977 24.112 43.6526 24.3789 43.3141 24.6914C42.9755 25.0039 42.6695 25.375 42.3961 25.8047C42.1357 26.2344 41.9208 26.7227 41.7516 27.2695C41.5953 27.8034 41.5172 28.4023 41.5172 29.0664C41.5172 30.0951 41.719 30.9219 42.1227 31.5469C42.5263 32.1719 43.1708 32.4844 44.0563 32.4844ZM57.4828 0.472656H62.4242V36H57.4828V0.472656Z" fill="black"/>
</svg>
