<svg width="105" height="64" viewBox="0 0 105 64" fill="none" xmlns="http://www.w3.org/2000/svg">
<path d="M9.8 40.72C8.12 40.72 6.64 40.4267 5.36 39.84C4.08 39.2533 3.09333 38.44 2.4 37.4C1.70667 36.3333 1.36 35.1067 1.36 33.72C1.36 32.5467 1.6 31.48 2.08 30.52C2.58667 29.56 3.25333 28.8 4.08 28.24C4.93333 27.68 5.86667 27.4 6.88 27.4C7.81333 27.4 8.6 27.64 9.24 28.12C9.88 28.5733 10.28 29.2133 10.44 30.04C9.05333 30.04 7.94667 30.4133 7.12 31.16C6.29333 31.88 5.88 32.8667 5.88 34.12C5.88 35.2667 6.22667 36.1867 6.92 36.88C7.61333 37.5733 8.53333 37.92 9.68 37.92C11.0933 37.92 12.2533 37.4533 13.16 36.52C14.0933 35.56 14.56 34.36 14.56 32.92C14.56 31.6667 14.2133 30.48 13.52 29.36C12.8267 28.24 11.7867 26.88 10.4 25.28C8.96 23.6267 7.86667 22.2133 7.12 21.04C6.4 19.84 6.04 18.5333 6.04 17.12C6.04 15.7333 6.42667 14.4933 7.2 13.4C7.97333 12.28 9.04 11.4 10.4 10.76C11.76 10.12 13.2933 9.8 15 9.8C17.16 9.8 18.88 10.3067 20.16 11.32C21.4667 12.3333 22.12 13.6933 22.12 15.4C22.12 16.52 21.84 17.4267 21.28 18.12C20.72 18.8133 19.9867 19.16 19.08 19.16C18.0667 19.16 17.2533 18.7467 16.64 17.92C17.1467 17.5467 17.5467 17.0533 17.84 16.44C18.1333 15.8267 18.28 15.1867 18.28 14.52C18.28 13.6667 18.0267 12.9867 17.52 12.48C17.0133 11.9733 16.32 11.72 15.44 11.72C14.3733 11.72 13.4933 12.1067 12.8 12.88C12.1333 13.6267 11.8 14.5867 11.8 15.76C11.8 16.8267 12.1067 17.8267 12.72 18.76C13.3333 19.6667 14.2933 20.84 15.6 22.28C16.6667 23.4267 17.52 24.4133 18.16 25.24C18.8267 26.0667 19.3867 27.0267 19.84 28.12C20.32 29.1867 20.56 30.3467 20.56 31.6C20.56 33.3067 20.08 34.8533 19.12 36.24C18.1867 37.6267 16.8933 38.72 15.24 39.52C13.6133 40.32 11.8 40.72 9.8 40.72ZM30.5325 40.24C28.5592 40.24 27.0258 39.7333 25.9325 38.72C24.8392 37.68 24.2925 36.0667 24.2925 33.88C24.2925 32.04 24.6525 30.0133 25.3725 27.8C26.0925 25.5867 27.2658 23.68 28.8925 22.08C30.5192 20.4533 32.5858 19.64 35.0925 19.64C38.0258 19.64 39.4925 20.92 39.4925 23.48C39.4925 24.9733 39.0658 26.3467 38.2125 27.6C37.3592 28.8533 36.2258 29.8667 34.8125 30.64C33.3992 31.3867 31.8925 31.8133 30.2925 31.92C30.2392 32.72 30.2125 33.2533 30.2125 33.52C30.2125 34.8267 30.4392 35.72 30.8925 36.2C31.3458 36.6533 32.0792 36.88 33.0925 36.88C34.5325 36.88 35.7592 36.5467 36.7725 35.88C37.8125 35.2133 38.9458 34.2 40.1725 32.84H41.5325C38.5725 37.7733 34.9058 40.24 30.5325 40.24ZM30.6125 30C31.5992 29.9467 32.5325 29.6 33.4125 28.96C34.3192 28.32 35.0392 27.5067 35.5725 26.52C36.1325 25.5333 36.4125 24.4933 36.4125 23.4C36.4125 22.3067 36.0792 21.76 35.4125 21.76C34.4525 21.76 33.5058 22.6 32.5725 24.28C31.6658 25.96 31.0125 27.8667 30.6125 30ZM46.9641 40.24C45.4441 40.24 44.1774 39.72 43.1641 38.68C42.1507 37.64 41.6441 36.0133 41.6441 33.8C41.6441 31.8267 42.0307 29.76 42.8041 27.6C43.6041 25.4133 44.7774 23.5733 46.3241 22.08C47.8974 20.56 49.7641 19.8 51.9241 19.8C53.0174 19.8 53.8307 19.9867 54.3641 20.36C54.8974 20.7333 55.1641 21.2267 55.1641 21.84V22.12L55.6041 20H61.3641L58.4841 33.6C58.3774 34 58.3241 34.4267 58.3241 34.88C58.3241 36.0267 58.8707 36.6 59.9641 36.6C60.7107 36.6 61.3507 36.2533 61.8841 35.56C62.4441 34.8667 62.8841 33.96 63.2041 32.84H64.8841C63.8974 35.72 62.6707 37.68 61.2041 38.72C59.7641 39.7333 58.3107 40.24 56.8441 40.24C55.7241 40.24 54.8174 39.9333 54.1241 39.32C53.4574 38.68 53.0574 37.76 52.9241 36.56C52.1507 37.6533 51.2841 38.5467 50.3241 39.24C49.3907 39.9067 48.2707 40.24 46.9641 40.24ZM49.5641 36.36C50.2307 36.36 50.8841 36.0533 51.5241 35.44C52.1907 34.8 52.6441 33.9333 52.8841 32.84L54.8041 23.8C54.8041 23.4533 54.6707 23.12 54.4041 22.8C54.1374 22.4533 53.7241 22.28 53.1641 22.28C52.0974 22.28 51.1374 22.9067 50.2841 24.16C49.4307 25.3867 48.7641 26.88 48.2841 28.64C47.8041 30.3733 47.5641 31.9067 47.5641 33.24C47.5641 34.5733 47.7507 35.4267 48.1241 35.8C48.5241 36.1733 49.0041 36.36 49.5641 36.36ZM69.0988 40.24C67.8188 40.24 66.7788 39.84 65.9788 39.04C65.2054 38.2133 64.8187 36.9867 64.8187 35.36C64.8187 34.6933 64.9254 33.8267 65.1387 32.76L69.4188 12.72L75.3388 11.92L70.7388 33.52C70.6321 33.92 70.5788 34.3067 70.5788 34.68C70.5788 35.7467 71.1254 36.28 72.2188 36.28C72.6988 36.28 73.1254 36.2 73.4988 36.04C73.3921 37.3733 72.9121 38.4133 72.0588 39.16C71.2321 39.88 70.2454 40.24 69.0988 40.24Z" fill="black"/>
<path d="M57.4629 52.4688V61H56.7949V52.4688H57.4629ZM59.8887 52.4688V53.0957H54.375V52.4688H59.8887ZM66.5386 56.2832V56.916H62.2788V56.2832H66.5386ZM62.4253 52.4688V61H61.7515V52.4688H62.4253ZM67.0952 52.4688V61H66.4214V52.4688H67.0952ZM74.085 60.373V61H70.1006V60.373H74.085ZM70.2881 52.4688V61H69.6143V52.4688H70.2881ZM73.587 56.2832V56.916H70.1006V56.2832H73.587ZM74.0557 52.4688V53.0957H70.1006V52.4688H74.0557ZM81.2149 61H79.6153L79.6212 60.373H81.2149C81.7266 60.373 82.1622 60.2656 82.5216 60.0508C82.8809 59.8359 83.1544 59.5215 83.3419 59.1074C83.5333 58.6934 83.629 58.1875 83.629 57.5898V55.8613C83.629 55.4082 83.5743 55.0098 83.4649 54.666C83.3595 54.3184 83.2032 54.0293 82.9962 53.7988C82.793 53.5645 82.545 53.3887 82.252 53.2715C81.9591 53.1543 81.629 53.0957 81.2618 53.0957H79.5802V52.4688H81.2618C81.7149 52.4688 82.1251 52.543 82.4923 52.6914C82.8634 52.8398 83.1837 53.0586 83.4532 53.3477C83.7227 53.6367 83.9298 53.9941 84.0743 54.4199C84.2188 54.8418 84.2911 55.3262 84.2911 55.873V57.5898C84.2911 58.1406 84.2188 58.6289 84.0743 59.0547C83.9298 59.4766 83.7227 59.832 83.4532 60.1211C83.1837 60.4102 82.8595 60.6289 82.4805 60.7773C82.1055 60.9258 81.6837 61 81.2149 61ZM79.9317 52.4688V61H79.2579V52.4688H79.9317ZM91.0523 60.373V61H87.068V60.373H91.0523ZM87.2555 52.4688V61H86.5816V52.4688H87.2555ZM90.5543 56.2832V56.916H87.068V56.2832H90.5543ZM91.023 52.4688V53.0957H87.068V52.4688H91.023ZM95.4464 52.9844L92.9855 61H92.2941L95.007 52.4688H95.4816L95.4464 52.9844ZM97.6495 61L95.1886 52.9844L95.1593 52.4688H95.628L98.3468 61H97.6495ZM97.2687 57.9824V58.6152H93.4191V57.9824H97.2687ZM104.288 60.373V61H100.596V60.373H104.288ZM100.784 52.4688V61H100.104V52.4688H100.784Z" fill="black"/>
<path d="M46.7129 56.9336V57.543H44.3516V56.9336H46.7129Z" fill="black"/>
</svg>
